<svg width="496" height="512" viewBox="0 0 496 512" fill="none" xmlns="http://www.w3.org/2000/svg">
<path d="M160.7 397.262C161.504 397.231 162.302 397.186 163.092 397.128C163.097 397.219 163.1 397.31 163.1 397.4C163.1 399.12 162.356 400.282 161.737 400.93C161.504 400.962 161.264 400.983 161.019 400.993C160.914 400.998 160.807 401 160.7 401C160.565 401.012 160.432 401.021 160.3 401.027C160.016 401.04 159.741 401.039 159.475 401.024C158.761 400.384 157.9 399.177 157.9 397.4C157.9 397.369 157.9 397.338 157.901 397.308C158.706 397.312 159.506 397.301 160.3 397.276C160.32 397.275 160.341 397.275 160.361 397.274C160.456 397.271 160.551 397.267 160.646 397.264C160.664 397.263 160.682 397.263 160.7 397.262ZM76.2479 327.926C76.2441 327.926 76.2405 327.926 75.6 335.9L76.2405 327.926L75.9697 327.904L75.698 327.901C72.2871 327.859 69.2611 328.083 66.681 328.684C64.2098 329.26 61.292 330.379 59.0919 332.801C56.5664 335.582 55.9578 338.982 56.4285 341.91C56.8413 344.478 58.038 346.586 59.0121 348.008C60.989 350.894 63.7868 353.42 65.6891 355.002C66.7101 355.851 67.6303 356.556 68.2997 357.053C68.6362 357.302 68.9141 357.502 69.1153 357.645C69.216 357.717 69.2979 357.774 69.3588 357.817L69.4341 357.869L69.4594 357.887L69.4689 357.893L69.4729 357.896C69.4747 357.897 69.4763 357.898 74 351.3L69.4763 357.898L70.0454 358.288L70.6729 358.575C76.4696 361.226 82.3609 368.435 87.1799 376.512C89.4551 380.325 91.267 383.943 92.5103 386.613C93.1295 387.943 93.6014 389.024 93.9134 389.759C94.0692 390.126 94.1847 390.407 94.2583 390.587C94.2667 390.608 94.2745 390.627 94.2818 390.645C103.249 417.545 128.711 425.632 148.901 427.564C159.263 428.555 169.035 428.042 176.16 427.301C176.979 427.216 177.765 427.127 178.516 427.038C178.541 435.698 178.596 445.341 178.65 454C178.673 457.563 178.695 460.954 178.715 464.042C178.763 471.342 178.8 476.945 178.8 479.1C178.8 480.691 178.23 481.924 177.542 482.555C177.114 482.947 175.634 484.058 171.45 483.415C75.3533 450.94 8 359.27 8 252C8 117.753 110.484 16 244.8 16C379.389 16 488 118.02 488 252C488 359.38 422.537 450.972 326.255 483.215C322.133 483.855 320.637 482.758 320.182 482.343C319.467 481.69 318.9 480.445 318.9 478.9C318.9 476.213 318.933 469.892 318.976 461.398C318.999 457.011 319.024 452.045 319.05 446.701C319.125 431.036 319.2 412.17 319.2 395.3C319.2 378.452 315.452 365.076 309.582 355.14C333.034 352.142 357.503 347.399 377.063 334.089C401.603 317.39 417 288.419 417 238.4C417 223.655 414.343 212.124 409.285 201.794C404.972 192.987 399.059 185.373 392.296 177.678C395.865 165.996 400.545 140.332 388.041 108.662L386.642 105.119L383.009 103.971C375.409 101.571 366.534 103.036 358.715 105.368C350.591 107.791 342.122 111.62 334.586 115.52C327.006 119.442 320.138 123.56 315.178 126.685C313.179 127.944 311.48 129.048 310.16 129.921C290.473 124.759 269.538 122.1 248.8 122.1C228.059 122.1 207.123 124.759 187.434 129.923C186.113 129.052 184.415 127.951 182.415 126.694C177.455 123.577 170.587 119.47 163.01 115.555C155.474 111.662 147.008 107.839 138.89 105.412C131.074 103.075 122.213 101.601 114.624 103.961L110.97 105.097L109.562 108.655C97.0492 140.256 101.739 165.992 105.308 177.687C98.5386 185.49 93.077 193.161 89.2484 202.082C84.8106 212.423 82.8 223.884 82.8 238.4C82.8 288.148 97.49 317.145 121.387 333.945C140.519 347.395 164.599 352.193 187.986 355.183C184.455 361.215 181.637 368.475 179.953 376.945C173.294 379.533 163.91 381.999 154.212 381.132C143.056 380.134 130.777 374.706 121.158 357.752L121.146 357.731L121.133 357.709C113.229 343.978 102.06 336.526 92.9709 332.547C88.4359 330.561 84.3805 329.42 81.4198 328.77C79.9354 328.445 78.7138 328.239 77.829 328.113C77.3862 328.05 77.0264 328.006 76.759 327.976C76.6252 327.962 76.5144 327.95 76.4276 327.942C76.3842 327.938 76.3469 327.935 76.3156 327.932L76.2734 327.928L76.2558 327.927L76.2479 327.926ZM107.4 371.6C107.814 372.195 108.302 372.703 108.82 373.112C109.615 373.155 110.595 373.024 111.582 372.489C111.092 371.799 110.608 371.092 110.13 370.368L109.784 369.942L109.782 369.939L109.629 369.752L107.955 367.691C107.178 368.323 106.72 369.068 106.469 369.754C106.63 370.25 106.863 370.754 107.17 371.249C107.242 371.366 107.318 371.482 107.398 371.597C107.399 371.598 107.399 371.599 107.4 371.6ZM119.372 384.834C119.486 384.242 119.763 383.423 120.371 382.606C120.656 382.871 120.942 383.133 121.229 383.39C121.522 383.652 121.817 383.911 122.112 384.164C122.164 384.209 122.217 384.254 122.269 384.299C122.293 384.319 122.317 384.34 122.34 384.36C122.368 384.383 122.395 384.406 122.422 384.429C123.088 384.993 123.758 385.535 124.434 386.057C124.226 386.248 124.014 386.413 123.801 386.555C122.752 387.256 121.687 387.404 121.017 387.392C120.752 387.196 120.49 386.976 120.235 386.732C120.19 386.689 120.145 386.645 120.1 386.6C120.058 386.565 120.016 386.53 119.975 386.494C119.725 386.278 119.497 386.049 119.291 385.81C119.282 385.549 119.297 385.22 119.372 384.834ZM108.122 367.559C108.177 367.517 108.231 367.477 108.286 367.437C108.629 368.008 108.975 368.57 109.324 369.122L108.122 367.559ZM100.028 356.272C100.861 357.094 101.681 357.97 102.48 358.903C102.343 359.019 102.204 359.126 102.064 359.223C101.743 359.448 101.418 359.626 101.096 359.765C100.076 359.673 98.9646 359.105 98.0523 358.248L99.8957 356.404L100.028 356.272ZM99.5501 356.45L97.8145 358.003C97.1719 357.259 96.7415 356.459 96.5352 355.702C97.0779 355.358 97.5976 354.949 98.0854 354.469C98.4369 354.776 98.7868 355.091 99.1348 355.415C99.3832 355.647 99.6306 355.883 99.8768 356.123L99.7652 356.235L99.5501 356.45ZM86.8962 347.355C87.4747 347.613 88.0623 347.89 88.6569 348.186L88.4621 348.576C87.8135 348.222 87.2825 347.803 86.8962 347.355ZM89.2357 348.981L89.3659 348.547C89.6074 348.672 89.8499 348.801 90.0933 348.933C90.0337 349.023 89.9759 349.113 89.92 349.203C89.6907 349.152 89.4612 349.078 89.2357 348.981ZM137.542 393.86C137.566 393.757 137.593 393.652 137.624 393.546C138.345 393.828 139.068 394.092 139.792 394.339C139.818 394.348 139.844 394.357 139.87 394.366L139.786 394.645L139.62 395.2L138.856 397.747C138.587 397.684 138.327 397.607 138.078 397.518C137.676 396.858 137.148 395.561 137.542 393.86ZM139.9 394.685L139.976 394.402C140.104 394.445 140.231 394.487 140.358 394.529C141.06 394.76 141.763 394.975 142.467 395.174C142.433 395.296 142.394 395.418 142.351 395.543C141.808 397.095 140.802 397.818 140.242 398.111C139.859 398.047 139.475 397.944 139.1 397.8C139.088 397.798 139.076 397.795 139.064 397.793L139.211 397.244L139.9 394.685ZM176.989 395.287C176.961 395.1 176.943 394.92 176.934 394.744C177.703 394.539 178.456 394.325 179.191 394.106L179.383 394.9L179.386 394.927L176.989 395.287ZM179.358 394.665L179.226 394.096C179.25 394.089 179.274 394.082 179.297 394.075L179.358 394.665ZM179.882 394.853L179.667 393.963C180.397 393.741 181.109 393.514 181.802 393.283C181.981 393.639 182.132 394.043 182.234 394.5L179.882 394.853ZM179.891 394.891L182.239 394.52C182.267 394.647 182.291 394.778 182.311 394.913L179.981 395.263L179.891 394.891ZM179.39 394.97L179.429 395.346L177.064 395.7C177.039 395.586 177.017 395.469 176.998 395.348L179.39 394.97ZM177.075 395.751L179.439 395.443L179.786 398.801C179.578 398.835 179.372 398.859 179.169 398.873C178.643 398.54 177.498 397.618 177.075 395.751ZM180.779 398.571L180.006 395.369L182.333 395.065C182.429 395.803 182.338 396.564 182.082 397.251C181.913 397.708 181.697 398.063 181.496 398.325C181.265 398.415 181.026 398.498 180.779 398.571Z" stroke="black" stroke-width="16"/>
</svg>
