<svg width="12" height="15" viewBox="0 0 12 15" fill="none" xmlns="http://www.w3.org/2000/svg">
<path d="M6 15C2.6875 15 0 11.8125 0 8.5C0 5 2 0 6 0C10 0 12 5 12 8.5C12 11.8125 9.3125 15 6 15ZM4.8125 3.6875C5.03125 3.5 5.03125 3.1875 4.84375 3C4.65625 2.78125 4.34375 2.78125 4.15625 2.96875C3.40625 3.65625 2.875 4.625 2.5 5.59375C2.15625 6.59375 2 7.625 2 8.5C2 8.78125 2.21875 9 2.5 9C2.75 9 3 8.78125 3 8.5C3 7.75 3.15625 6.8125 3.46875 5.9375C3.78125 5.03125 4.25 4.25 4.8125 3.6875Z" fill="black" fill-opacity="0.32"/>
</svg>
